<svg xmlns="http://www.w3.org/2000/svg" viewBox="0 0 172 52"><path d="M49.51,42.55,58,25.4,44.62,0H13L26.72,25.77,13.67,52h31.1l4.66-9.38h-.07v-.07ZM40,42.76l-13.59.18L35,25.65l-9.09-17,13.62-.18,9.1,17Z" style="fill:#fff"/><polygon points="12.55 13.42 9.5 7.96 0 25.77 9.66 45.17 12.73 39.38 5.96 25.77 12.55 13.42" style="fill:#fff"/><path d="M87.07,45.56a10.79,10.79,0,0,1-4.3.89c-4.46,0-9.07-2.28-9.07-8.48,0-6,4.55-8.48,8.94-8.48a11.27,11.27,0,0,1,5.6,1.39V29.21a13.65,13.65,0,0,0-5.83-1.28C77.24,27.93,72,31.13,72,38c0,7.26,5.29,10,10.63,10a14.78,14.78,0,0,0,6.11-1.31V37.44H87.07Z" style="fill:#fff"/><path d="M108,34c0-4.33-3.77-5.78-7.21-5.78H93.25V47.7h1.64V39.83h5.51l6.86,7.86h2.08l-7-8C105.2,39.33,108,37.75,108,34ZM94.93,38.24V29.82h6c2.58,0,5.4.94,5.4,4.2s-2.81,4.22-5.4,4.22Z" style="fill:#fff"/><path d="M121.35,27.93c-6.87,0-10.24,5.06-10.24,10a10.24,10.24,0,0,0,20.48,0,9.76,9.76,0,0,0-9.48-10C121.85,27.91,121.6,27.92,121.35,27.93Zm0,18.51a8.14,8.14,0,0,1-8.55-7.72,5.77,5.77,0,0,1,0-.72,8.56,8.56,0,0,1,17.11,0,8.14,8.14,0,0,1-7.82,8.44C121.83,46.45,121.59,46.45,121.35,46.44Z" style="fill:#fff"/><path d="M149.91,40.69c0,4.26-2.7,5.76-6.38,5.76s-6.42-1.51-6.42-5.76V28.24h-1.66V40.75c0,5.42,3.71,7.25,8.08,7.25s8.05-1.83,8.05-7.25V28.24h-1.67Z" style="fill:#fff"/><path d="M163.26,28.24h-6.47V47.7h1.66V40.61h4.81c4.48,0,8.3-1.42,8.3-6.2S167.74,28.24,163.26,28.24Zm.09,10.8h-4.86v-9.2h4.86c3.57,0,6.52.95,6.52,4.61s-3,4.55-6.52,4.55Z" style="fill:#fff"/><path d="M76.53,16.2H78.7c4.09,0,7.19-1.33,7.19-5.61S82.78,5,78.7,5H72.18V21.32h4.35Zm0-7.47h2.4c1.32,0,2.48.39,2.48,1.86s-1.17,1.87-2.5,1.87H76.53Z" style="fill:#fff"/><path d="M98.05,21.32h4.48L96.05,5H91.33L84.85,21.32h4.48l.94-2.56h6.84Zm-6.48-6.06,1.7-4.7A8,8,0,0,0,93.7,8.9a7.92,7.92,0,0,0,.42,1.66l1.7,4.7Z" style="fill:#fff"/><polygon points="119.37 21.32 113.95 12.94 119.13 5 114.3 5 110.55 11.19 108.47 11.19 108.47 5 104.11 5 104.11 21.32 108.47 21.32 108.47 15.03 110.52 15.03 114.53 21.32 119.37 21.32" style="fill:#fff"/><polygon points="125.12 5 120.76 5 120.76 21.32 132.66 21.32 132.66 17.48 125.12 17.48 125.12 5" style="fill:#fff"/><rect x="134.53" y="5" width="4.36" height="16.32" style="fill:#fff"/><path d="M156.86,5H152.5v6.66a26,26,0,0,0,.09,2.71L146.13,5H142V21.32h4.37V14.66a23,23,0,0,0-.1-2.68l6.46,9.34h4.13Z" style="fill:#fff"/><polygon points="164.34 17.59 164.34 14.94 171.14 14.94 171.14 11.23 164.34 11.23 164.34 8.74 171.86 8.74 171.86 5 159.97 5 159.97 21.32 172 21.32 172 17.59 164.34 17.59" style="fill:#fff"/></svg>