<svg xmlns="http://www.w3.org/2000/svg" xmlns:xlink="http://www.w3.org/1999/xlink" style="display:none"><symbol id="arrow-bottom"><path d="M0 3.47V0l6 3.21L12 0v3.47L6 7z"/></symbol><symbol id="arrow-right"><path d="M3.47 0H0l3.21 6L0 12h3.47L7 6z"/></symbol><symbol id="burger"><path d="M0 0h27v2.75H0zM8.1 9.63H27v2.75H8.1zM16.2 19.25H27V22H16.2z"/></symbol><symbol id="lang-switcher-icon"><path d="M13 0a13 13 0 000 26 13 13 0 000-26zm0 24.6c-1.3 0-2.8-2.8-3.4-7h6.8c-.6 4.2-2 7-3.4 7zm-3.6-8.4a32.6 32.6 0 010-6.4h7.2a29.8 29.8 0 01.1 3.2 29.8 29.8 0 01-.1 3.2zm-8-3.2A11.8 11.8 0 012 9.8h6a34.4 34.4 0 000 6.4H1.9a11.8 11.8 0 01-.5-3.2zM13 1.4c1.3 0 2.8 2.8 3.4 7H9.6c.6-4.2 2-7 3.4-7zm5 8.4h6.1a11.5 11.5 0 010 6.4H18a34.4 34.4 0 000-6.4zm5.6-1.4h-5.8a16.7 16.7 0 00-2.1-6.7 11.6 11.6 0 017.9 6.7zM10.3 1.7a16.7 16.7 0 00-2.1 6.7H2.4a11.6 11.6 0 018-6.7zm-7.9 16h5.8a16.7 16.7 0 002.1 6.6 11.6 11.6 0 01-7.9-6.7zm13.3 6.6a16.7 16.7 0 002.1-6.7h5.8a11.6 11.6 0 01-8 6.7z"/></symbol><symbol id="phone"><path d="M13.33 14.21l1.73-1.72a1.61 1.61 0 01.84-.49 1.66 1.66 0 011 .08L19 13a1.68 1.68 0 01.76.61 1.63 1.63 0 01.29.93v3.84a1.66 1.66 0 01-.14.66 1.62 1.62 0 01-.95.9 1.66 1.66 0 01-.66.1C3.54 19.08.57 6.62 0 1.85a1.61 1.61 0 01.07-.69A1.62 1.62 0 01.43.55 1.88 1.88 0 011 .14 1.81 1.81 0 011.68 0h3.71a1.63 1.63 0 01.93.29 1.57 1.57 0 01.61.76l.84 2.1a1.71 1.71 0 01.09.95 1.76 1.76 0 01-.45.9L5.68 6.67s1 6.71 7.65 7.54z"/></symbol><symbol id="user"><path d="M13.5 0A13.5 13.5 0 1027 13.5 13.51 13.51 0 0013.5 0zm0 4.05A4.05 4.05 0 119.45 8.1a4 4 0 014.05-4.05zm0 19.17a9.75 9.75 0 01-4.6-1.16 9.65 9.65 0 01-3.5-3.19c0-2.68 5.4-4.15 8.1-4.15s8.06 1.47 8.1 4.15a9.65 9.65 0 01-3.5 3.19 9.75 9.75 0 01-4.6 1.16z"/></symbol></svg>