<?xml version="1.0" standalone="no"?>
<!DOCTYPE svg PUBLIC "-//W3C//DTD SVG 20010904//EN"
 "http://www.w3.org/TR/2001/REC-SVG-20010904/DTD/svg10.dtd">
<svg version="1.0" xmlns="http://www.w3.org/2000/svg"
 width="350.000000pt" height="350.000000pt" viewBox="0 0 350.000000 350.000000"
 preserveAspectRatio="xMidYMid meet">
<metadata>
Created by potrace 1.11, written by Peter Selinger 2001-2013
</metadata>
<g transform="translate(0.000000,350.000000) scale(0.100000,-0.100000)"
fill="#000000" stroke="none">
<path d="M848 3228 c63 -119 152 -291 272 -523 40 -77 92 -176 115 -220 23
-44 77 -147 120 -230 43 -82 95 -181 115 -220 20 -38 61 -116 90 -172 l52
-102 -47 -98 c-27 -54 -96 -197 -155 -318 -59 -121 -158 -323 -220 -450 -62
-126 -155 -318 -207 -425 -52 -107 -108 -221 -124 -253 l-29 -57 936 2 936 3
399 795 400 795 -91 180 c-49 99 -141 279 -203 400 -63 121 -174 337 -247 480
-73 143 -164 319 -201 390 l-68 130 -951 3 -951 2 59 -112z m1591 -521 c66
-126 327 -619 374 -707 103 -190 135 -258 128 -266 -5 -5 -41 -72 -81 -149
-40 -77 -96 -185 -125 -240 -84 -160 -157 -300 -235 -450 -40 -77 -77 -145
-82 -151 -6 -9 -121 -12 -408 -12 -220 0 -400 2 -400 4 0 2 116 236 258 520
l259 517 -137 251 c-75 138 -157 289 -182 336 -58 109 -105 195 -133 245 -53
94 -105 194 -105 199 0 3 183 6 408 6 l407 0 54 -103z"/>
<path d="M559 2808 c-6 -12 -24 -45 -39 -73 -15 -27 -51 -95 -80 -150 -70
-133 -132 -250 -222 -420 -41 -77 -107 -202 -147 -278 l-72 -137 29 -63 c35
-72 293 -600 450 -920 l107 -217 47 92 c27 51 69 132 95 180 l47 86 -34 69
c-18 37 -66 136 -105 218 -40 83 -116 240 -169 349 -56 115 -94 206 -91 216 5
15 53 104 193 360 19 36 49 90 65 120 16 30 54 99 83 153 30 53 54 101 54 105
0 4 -20 41 -45 81 -25 40 -45 74 -45 76 0 3 -99 166 -106 173 -1 2 -8 -7 -15
-20z"/>
</g>
</svg>
