<svg xmlns="http://www.w3.org/2000/svg" xmlns:xlink="http://www.w3.org/1999/xlink" style="display:none"><symbol id="arrow-bottom"><path d="M0 3.47V0l6 3.21L12 0v3.47L6 7z"/></symbol><symbol id="arrow-right"><path d="M3.47 0H0l3.21 6L0 12h3.47L7 6z"/></symbol><symbol id="burger"><path d="M0 0h27v2.75H0zM8.1 9.63H27v2.75H8.1zM16.2 19.25H27V22H16.2z"/></symbol><symbol id="download"><path d="M17.64 19.29H1.36a1.36 1.36 0 100 2.71h16.28a1.36 1.36 0 100-2.71zM8.54 15.89a1.35 1.35 0 001.92 0l4.07-4.07a1.36 1.36 0 10-1.92-1.92l-1.75 1.75V1.36a1.36 1.36 0 10-2.72 0v10.29L6.39 9.9a1.36 1.36 0 10-1.92 1.92z"/></symbol><symbol id="home"><path d="M1.78 17h12.44A1.74 1.74 0 0016 15.3V7.65a.78.78 0 00-.07-.33.83.83 0 00-.19-.27L8.63.25a1 1 0 00-.29-.19 1 1 0 00-.68 0 1 1 0 00-.29.19L.26 7.05a.83.83 0 00-.19.27.78.78 0 00-.07.33v7.65A1.74 1.74 0 001.78 17zm4.44-1.7v-4.25h3.56v4.25zM1.78 8L8 2.05l6.22 6v7.3h-2.66v-4.3a1.74 1.74 0 00-1.78-1.7H6.22a1.74 1.74 0 00-1.78 1.7v4.25H1.78z"/></symbol><symbol id="lang-switcher-icon"><path d="M12.99 0a13 13 0 1013 13 13 13 0 00-13-13zm9 7.8h-3.83a20.84 20.84 0 00-1.79-4.63A10.46 10.46 0 0122 7.8zm-9-5.15A18.3 18.3 0 0115.5 7.8h-5A18.3 18.3 0 0113 2.65zM2.94 15.6a10.11 10.11 0 010-5.2h4.39a22.4 22.4 0 00-.18 2.6 22.4 22.4 0 00.18 2.6zM4 18.2h3.84a20.29 20.29 0 001.79 4.63A10.42 10.42 0 014 18.2zM7.84 7.8H4a10.42 10.42 0 015.63-4.63A20.84 20.84 0 007.84 7.8zM13 23.35a18.3 18.3 0 01-2.5-5.15h5a18.3 18.3 0 01-2.5 5.15zm3-7.75H9.96a18.73 18.73 0 01-.21-2.6 18.49 18.49 0 01.21-2.6h6.08a18.49 18.49 0 01.21 2.6 18.73 18.73 0 01-.21 2.6zm.33 7.23a20.76 20.76 0 001.79-4.63H22a10.46 10.46 0 01-5.63 4.63zm2.3-7.23a22.4 22.4 0 00.18-2.6 22.4 22.4 0 00-.18-2.6h4.39a10.11 10.11 0 010 5.2z"/></symbol><symbol id="pdf-file"><path d="M5.87 17.75a2.19 2.19 0 00-.51.05v1.65a1.55 1.55 0 00.41 0c.66 0 1.06-.34 1.06-.91s-.34-.79-.96-.79zM10.66 17.77a2.29 2.29 0 00-.56.05v3.65a1.89 1.89 0 00.43 0 1.72 1.72 0 001.86-2 1.59 1.59 0 00-1.73-1.7z"/><path d="M13.75 0h-11A2.68 2.68 0 00.81.82 2.83 2.83 0 000 2.8v22.4a2.83 2.83 0 00.81 2 2.68 2.68 0 001.94.8h16.5a2.68 2.68 0 001.94-.82 2.83 2.83 0 00.81-2V8.4zM7.56 19.87a2.55 2.55 0 01-1.78.58 2.07 2.07 0 01-.43 0v2H4.13v-5.54a10.34 10.34 0 011.67-.11 2.59 2.59 0 011.68.45 1.63 1.63 0 01.58 1.29 1.84 1.84 0 01-.5 1.33zm5.23 1.89a3.85 3.85 0 01-2.53.72 10.82 10.82 0 01-1.4-.08v-5.48a9.32 9.32 0 011.67-.12 3.47 3.47 0 012.25.6 2.47 2.47 0 01.93 2.1 2.84 2.84 0 01-.92 2.26zm5.08-3.88h-2.1v1.27h2v1h-2v2.25h-1.25v-5.56h3.35zM12.38 9.8v-7l6.87 7z"/></symbol><symbol id="phone"><path d="M13.33 14.21l1.73-1.72a1.61 1.61 0 01.84-.49 1.66 1.66 0 011 .08L19 13a1.68 1.68 0 01.76.61 1.63 1.63 0 01.29.93v3.84a1.66 1.66 0 01-.14.66 1.62 1.62 0 01-.95.9 1.66 1.66 0 01-.66.1C3.54 19.08.57 6.62 0 1.85a1.61 1.61 0 01.07-.69A1.62 1.62 0 01.43.55 1.88 1.88 0 011 .14 1.81 1.81 0 011.68 0h3.71a1.63 1.63 0 01.93.29 1.57 1.57 0 01.61.76l.84 2.1a1.71 1.71 0 01.09.95 1.76 1.76 0 01-.45.9L5.68 6.67s1 6.71 7.65 7.54z"/></symbol><symbol id="quotes-start"><path d="M6.43 7h2.14L10 4.2V0H5.71v4.2h2.15zM.71 7h2.15l1.43-2.8V0H0v4.2h2.14z"/></symbol><symbol id="user"><path d="M13 0a13 13 0 1013 13A13 13 0 0013 0zm0 3.9a3.9 3.9 0 11-3.9 3.9 3.85 3.85 0 013.8-3.9zm0 18.46a9.39 9.39 0 01-7.8-4.19c0-2.58 5.2-4 7.8-4s7.76 1.42 7.8 4a9.39 9.39 0 01-7.8 4.19z"/></symbol></svg>