<svg xmlns="http://www.w3.org/2000/svg" xmlns:xlink="http://www.w3.org/1999/xlink" style="display:none"><symbol id="arrow-bottom"><path d="M0 3.47V0l6 3.21L12 0v3.47L6 7z"/></symbol><symbol id="arrow-right"><path d="M3.47 0H0l3.21 6L0 12h3.47L7 6z"/></symbol><symbol id="burger"><path d="M0 0h27v2.75H0zM8.1 9.63H27v2.75H8.1zM16.2 19.25H27V22H16.2z"/></symbol><symbol id="download"><path d="M17.64 19.29H1.36a1.36 1.36 0 100 2.71h16.28a1.36 1.36 0 100-2.71zM8.54 15.89a1.35 1.35 0 001.92 0l4.07-4.07a1.36 1.36 0 10-1.92-1.92l-1.75 1.75V1.36a1.36 1.36 0 10-2.72 0v10.29L6.39 9.9a1.36 1.36 0 10-1.92 1.92z"/></symbol><symbol id="facebook" viewBox="0 0 32 32"><path d="M15.49 28v-9.28h-3.12v-3.63h3.12v-2.67c0-3.1 1.89-4.79 4.67-4.79.93 0 1.87.05 2.79.14V11h-1.91c-1.5 0-1.8.72-1.8 1.77v2.31h3.6l-.47 3.63h-3.13V28h4.24A4.53 4.53 0 0028 23.48V8.53a4.53 4.53 0 00-4.52-4.52H8.53a4.53 4.53 0 00-4.52 4.52v14.95A4.53 4.53 0 008.53 28h6.96z"/></symbol><symbol id="home"><path d="M1.78 17h12.44A1.74 1.74 0 0016 15.3V7.65a.78.78 0 00-.07-.33.83.83 0 00-.19-.27L8.63.25a1 1 0 00-.29-.19 1 1 0 00-.68 0 1 1 0 00-.29.19L.26 7.05a.83.83 0 00-.19.27.78.78 0 00-.07.33v7.65A1.74 1.74 0 001.78 17zm4.44-1.7v-4.25h3.56v4.25zM1.78 8L8 2.05l6.22 6v7.3h-2.66v-4.3a1.74 1.74 0 00-1.78-1.7H6.22a1.74 1.74 0 00-1.78 1.7v4.25H1.78z"/></symbol><symbol id="lang-switcher-icon"><path d="M12.99 0a13 13 0 1013 13 13 13 0 00-13-13zm9 7.8h-3.83a20.84 20.84 0 00-1.79-4.63A10.46 10.46 0 0122 7.8zm-9-5.15A18.3 18.3 0 0115.5 7.8h-5A18.3 18.3 0 0113 2.65zM2.94 15.6a10.11 10.11 0 010-5.2h4.39a22.4 22.4 0 00-.18 2.6 22.4 22.4 0 00.18 2.6zM4 18.2h3.84a20.29 20.29 0 001.79 4.63A10.42 10.42 0 014 18.2zM7.84 7.8H4a10.42 10.42 0 015.63-4.63A20.84 20.84 0 007.84 7.8zM13 23.35a18.3 18.3 0 01-2.5-5.15h5a18.3 18.3 0 01-2.5 5.15zm3-7.75H9.96a18.73 18.73 0 01-.21-2.6 18.49 18.49 0 01.21-2.6h6.08a18.49 18.49 0 01.21 2.6 18.73 18.73 0 01-.21 2.6zm.33 7.23a20.76 20.76 0 001.79-4.63H22a10.46 10.46 0 01-5.63 4.63zm2.3-7.23a22.4 22.4 0 00.18-2.6 22.4 22.4 0 00-.18-2.6h4.39a10.11 10.11 0 010 5.2z"/></symbol><symbol id="linkedin" viewBox="0 0 32 32"><path fill-rule="evenodd" d="M28 23.48A4.53 4.53 0 0123.48 28H8.53a4.53 4.53 0 01-4.52-4.52V8.53a4.53 4.53 0 014.52-4.52h14.95A4.53 4.53 0 0128 8.53v14.95zM8.26 24h3.32V13.31H8.26V24zm.3-12.71a1.92 1.92 0 102.71-2.72 1.92 1.92 0 00-2.71 2.72zM20.68 24h3.31v-5.86c0-2.88-.62-5.09-3.98-5.09-1.61 0-2.69.89-3.13 1.73h-.05v-1.46h-3.18v10.69h3.31v-5.29c0-1.39.26-2.75 1.99-2.75s1.72 1.59 1.72 2.83V24z"/></symbol><symbol id="more-arrow"><path d="M22.27 11.4l-7-7a.851.851 0 00-1.2 0c-.33.33-.33.87 0 1.2l5.55 5.55H2.33a.85.85 0 100 1.7h17.28l-5.55 5.55c-.33.33-.33.87 0 1.2.33.33.87.33 1.2 0l7-7c.33-.33.33-.87 0-1.2z" fill-rule="evenodd"/></symbol><symbol id="pdf-file"><path d="M5.87 17.75a2.19 2.19 0 00-.51.05v1.65a1.55 1.55 0 00.41 0c.66 0 1.06-.34 1.06-.91s-.34-.79-.96-.79zM10.66 17.77a2.29 2.29 0 00-.56.05v3.65a1.89 1.89 0 00.43 0 1.72 1.72 0 001.86-2 1.59 1.59 0 00-1.73-1.7z"/><path d="M13.75 0h-11A2.68 2.68 0 00.81.82 2.83 2.83 0 000 2.8v22.4a2.83 2.83 0 00.81 2 2.68 2.68 0 001.94.8h16.5a2.68 2.68 0 001.94-.82 2.83 2.83 0 00.81-2V8.4zM7.56 19.87a2.55 2.55 0 01-1.78.58 2.07 2.07 0 01-.43 0v2H4.13v-5.54a10.34 10.34 0 011.67-.11 2.59 2.59 0 011.68.45 1.63 1.63 0 01.58 1.29 1.84 1.84 0 01-.5 1.33zm5.23 1.89a3.85 3.85 0 01-2.53.72 10.82 10.82 0 01-1.4-.08v-5.48a9.32 9.32 0 011.67-.12 3.47 3.47 0 012.25.6 2.47 2.47 0 01.93 2.1 2.84 2.84 0 01-.92 2.26zm5.08-3.88h-2.1v1.27h2v1h-2v2.25h-1.25v-5.56h3.35zM12.38 9.8v-7l6.87 7z"/></symbol><symbol id="phone"><path d="M13.33 14.21l1.73-1.72a1.61 1.61 0 01.84-.49 1.66 1.66 0 011 .08L19 13a1.68 1.68 0 01.76.61 1.63 1.63 0 01.29.93v3.84a1.66 1.66 0 01-.14.66 1.62 1.62 0 01-.95.9 1.66 1.66 0 01-.66.1C3.54 19.08.57 6.62 0 1.85a1.61 1.61 0 01.07-.69A1.62 1.62 0 01.43.55 1.88 1.88 0 011 .14 1.81 1.81 0 011.68 0h3.71a1.63 1.63 0 01.93.29 1.57 1.57 0 01.61.76l.84 2.1a1.71 1.71 0 01.09.95 1.76 1.76 0 01-.45.9L5.68 6.67s1 6.71 7.65 7.54z"/></symbol><symbol id="play"><path d="M26 14.27c1.33.77 1.33 2.69 0 3.46L8 28.12c-1.33.77-3-.19-3-1.73V5.61c0-1.54 1.67-2.5 3-1.73l18 10.39z"/></symbol><symbol id="quotes-start"><path d="M6.43 7h2.14L10 4.2V0H5.71v4.2h2.15zM.71 7h2.15l1.43-2.8V0H0v4.2h2.14z"/></symbol><symbol id="telegram" viewBox="0 0 32 32"><path d="M27.53 5.47L3.91 14.16c-1.61.62-1.6 1.48-.3 1.86l6.06 1.8L23.7 9.38c.66-.39 1.27-.18.77.24L13.1 19.41l-.42 5.96c.61 0 .88-.27 1.23-.58l2.95-2.73 6.13 4.32c1.13.59 1.94.29 2.22-1L29.23 7.3c.41-1.57-.63-2.29-1.71-1.82z"/></symbol><symbol id="user"><path d="M13 0a13 13 0 1013 13A13 13 0 0013 0zm0 3.9a3.9 3.9 0 11-3.9 3.9 3.85 3.85 0 013.8-3.9zm0 18.46a9.39 9.39 0 01-7.8-4.19c0-2.58 5.2-4 7.8-4s7.76 1.42 7.8 4a9.39 9.39 0 01-7.8 4.19z"/></symbol><symbol id="viber" viewBox="0 0 32 32"><path fill-rule="evenodd" d="M15.44 5.7c.58 0 .93.02.93.02 4.79.01 7.07 1.38 7.61 1.84 1.76 1.43 2.66 4.86 2 9.89-.57 4.4-3.68 5.09-4.8 5.33l-.29.07c-.3.09-3.03.73-6.48.52 0 0-2.57 2.94-3.37 3.7-.13.13-.28.17-.37.15-.14-.03-.18-.19-.17-.41l.02-4.02c-4.86-1.27-4.75-5.96-4.69-8.63v-.28c.06-2.6.58-4.73 2.11-6.17C10 5.94 13.71 5.7 15.43 5.69zm.26 2.62l.12-.02c1.86 0 3.45.6 4.7 1.76a6.55 6.55 0 011.47 2.19c.33.82.48 1.69.44 2.57 0 .08-.03.15-.09.21a.31.31 0 01-.22.09c-.18.01-.32-.12-.32-.29-.02-1.86-.58-3.28-1.73-4.34a6.17 6.17 0 00-4.25-1.59c-.17 0-.32-.13-.32-.3 0-.04 0-.08.02-.11a.36.36 0 01.07-.1.2.2 0 01.1-.06zm-4.69.79c.19-.11.42-.15.65-.12.21.04.4.14.53.3.61.66 1.16 1.38 1.62 2.15.3.51.11 1.03-.18 1.25l-.59.45c-.3.22-.26.65-.26.65a6 6 0 004.17 3.96h.01s.44.03.68-.25l.47-.57c.22-.28.77-.45 1.31-.17.8.44 1.56.96 2.26 1.54.35.28.43.69.19 1.12-.26.44-.59.83-.98 1.16-.32.28-.73.44-1.16.47-.14 0-.27-.02-.42-.06-.51-.15-1.35-.49-2.74-1.21a16.31 16.31 0 01-3.35-2.33l-.03-.03-.03-.03-.05-.03-.03-.04a14.9 14.9 0 01-2.44-3.17c-.52-.82-.94-1.69-1.27-2.6h-.02a1.34 1.34 0 01-.05-.56c.04-.31.2-.63.49-.95.35-.37.75-.69 1.21-.94h.02zm5.36 1.37c-.42 0-.42-.6 0-.6h.05a4.7 4.7 0 013.21 1.34 4 4 0 011.13 2.99c0 .08-.03.16-.09.21a.31.31 0 01-.22.09v-.02c-.1 0-.18-.03-.23-.09a.29.29 0 01-.09-.21 3.43 3.43 0 00-.95-2.57 4.02 4.02 0 00-2.79-1.15zm.49 1.63c-.43-.01-.41-.63.02-.61h.01c1.37.07 2.14.83 2.21 2.16 0 .04 0 .08-.02.12l-.06.1c-.02.03-.06.05-.1.07a.27.27 0 01-.12.03h-.01a.31.31 0 01-.22-.09.27.27 0 01-.09-.21c-.07-1.03-.57-1.53-1.61-1.58z"/><path fill-rule="evenodd" d="M15.37 4c-2.03.02-6.39.34-8.83 2.46-1.82 1.71-2.45 4.23-2.52 7.35-.06 3.11-.14 8.95 5.79 10.54v2.42s-.04.97.64 1.17c.69.21 1.13-.27 1.71-.89l.38-.4 1.47-1.58c4.06.32 7.17-.42 7.52-.53l.3-.08c1.31-.31 5.23-1.25 5.92-6.58.78-6.03-.38-9.83-2.47-11.55h-.01c-.63-.55-3.16-2.3-8.82-2.32 0 0-.42-.03-1.09-.02zm.07 1.7c.58 0 .93.02.93.02 4.79.01 7.07 1.38 7.61 1.84 1.76 1.43 2.66 4.86 2 9.89-.57 4.4-3.68 5.09-4.8 5.33l-.29.07c-.3.09-3.03.73-6.48.52 0 0-2.57 2.94-3.37 3.7-.13.13-.28.17-.37.15-.14-.03-.18-.19-.17-.41l.02-4.02c-4.86-1.27-4.75-5.96-4.69-8.63v-.28c.06-2.6.58-4.73 2.11-6.17C10 5.94 13.71 5.7 15.43 5.69z"/></symbol><symbol id="whatsapp" viewBox="0 0 32 32"><path d="M16.75 26.5a11.1 11.1 0 01-5.46-1.41L4 28l2.91-7.29a11.1 11.1 0 01-.52-9.83 11.2 11.2 0 015.99-5.99C13.76 4.3 15.22 4 16.75 4s2.99.3 4.37.89a11.2 11.2 0 015.99 5.99c.59 1.38.89 2.84.89 4.37s-.3 2.99-.89 4.37a11.2 11.2 0 01-5.99 5.99c-1.38.59-2.84.89-4.37.89zm3.75-9H19l-.84.75c-.7-.19-1.57-.79-2.59-1.82-1.02-1.02-1.63-1.89-1.82-2.59l.75-.84v-1.5c0-.27-.09-.53-.28-.8a1.65 1.65 0 00-.62-.57c-.23-.12-.39-.13-.48-.04l-1.1 1.1c-.61.61-.7 1.56-.27 2.85a9.73 9.73 0 002.46 3.75 9.73 9.73 0 003.75 2.46c1.29.43 2.24.34 2.85-.27l1.1-1.1c.09-.09.08-.25-.04-.48a1.84 1.84 0 00-.57-.62 1.37 1.37 0 00-.8-.28z"/></symbol></svg>