<svg xmlns="http://www.w3.org/2000/svg" width="20" height="20" viewBox="0 0 20 20"><path d="M13.33,14.21l1.73-1.72A1.61,1.61,0,0,1,15.9,12a1.66,1.66,0,0,1,1,.08L19,13a1.68,1.68,0,0,1,.76.61,1.63,1.63,0,0,1,.29.93v3.84a1.66,1.66,0,0,1-.14.66,1.62,1.62,0,0,1-.95.9,1.66,1.66,0,0,1-.66.1C3.54,19.08.57,6.62,0,1.85a1.61,1.61,0,0,1,.07-.69A1.62,1.62,0,0,1,.43.55,1.88,1.88,0,0,1,1,.14,1.81,1.81,0,0,1,1.68,0H5.39a1.63,1.63,0,0,1,.93.29,1.57,1.57,0,0,1,.61.76l.84,2.1a1.71,1.71,0,0,1,.09.95A1.76,1.76,0,0,1,7.41,5L5.68,6.67S6.68,13.38,13.33,14.21Z" transform="translate(0 0)"/></svg>