<svg xmlns="http://www.w3.org/2000/svg" width="24" height="24" viewBox="0 0 24 24"><path d="M12,8a4,4,0,1,0,4,4A4,4,0,0,0,12,8Zm12,4c0-1.66,0-3.3-.08-4.95A7.09,7.09,0,0,0,22,2,7.09,7.09,0,0,0,17,.08C15.3,0,13.65,0,12,0S8.7,0,7.05.08A7.09,7.09,0,0,0,2,2a7.09,7.09,0,0,0-1.94,5C0,8.7,0,10.35,0,12S0,15.3.08,17A7.09,7.09,0,0,0,2,22a7.09,7.09,0,0,0,5,1.94c1.65.09,3.3.08,5,.08s3.3,0,4.95-.08A7.09,7.09,0,0,0,22,22a7.09,7.09,0,0,0,1.94-5C24,15.3,24,13.66,24,12ZM12,18.16A6.16,6.16,0,1,1,18.15,12,6.15,6.15,0,0,1,12,18.16ZM18.41,7a1.44,1.44,0,1,1,1.43-1.44,1.45,1.45,0,0,1-.1.55,1.51,1.51,0,0,1-.32.47,1.44,1.44,0,0,1-.46.31,1.54,1.54,0,0,1-.55.11Z"/></svg>