<svg xmlns="http://www.w3.org/2000/svg" width="26" height="26" viewBox="0 0 26 26"><title>lang-switcher-icon</title><path d="M13.49.5a13,13,0,1,0,13,13A13,13,0,0,0,13.49.5Zm9,7.8H18.66a20.84,20.84,0,0,0-1.79-4.63A10.46,10.46,0,0,1,22.5,8.3Zm-9-5.15A18.3,18.3,0,0,1,16,8.3H11A18.3,18.3,0,0,1,13.5,3.15ZM3.44,16.1a10.11,10.11,0,0,1,0-5.2H7.83a22.4,22.4,0,0,0-.18,2.6,22.4,22.4,0,0,0,.18,2.6ZM4.5,18.7H8.34a20.29,20.29,0,0,0,1.79,4.63A10.42,10.42,0,0,1,4.5,18.7ZM8.34,8.3H4.5a10.42,10.42,0,0,1,5.63-4.63A20.84,20.84,0,0,0,8.34,8.3ZM13.5,23.85A18.3,18.3,0,0,1,11,18.7h5A18.3,18.3,0,0,1,13.5,23.85Zm3-7.75H10.46a18.73,18.73,0,0,1-.21-2.6,18.49,18.49,0,0,1,.21-2.6h6.08a18.49,18.49,0,0,1,.21,2.6A18.73,18.73,0,0,1,16.54,16.1Zm.33,7.23a20.76,20.76,0,0,0,1.79-4.63H22.5A10.46,10.46,0,0,1,16.87,23.33Zm2.3-7.23a22.4,22.4,0,0,0,.18-2.6,22.4,22.4,0,0,0-.18-2.6h4.39a10.11,10.11,0,0,1,0,5.2Z" transform="translate(-0.5 -0.5)"/></svg>