<svg xmlns="http://www.w3.org/2000/svg" width="22" height="28" viewBox="0 0 22 28"><path d="M5.87,17.75a2.19,2.19,0,0,0-.51.05v1.65a1.55,1.55,0,0,0,.41,0c.66,0,1.06-.34,1.06-.91S6.49,17.75,5.87,17.75Z"/><path d="M10.66,17.77a2.29,2.29,0,0,0-.56.05v3.65a1.89,1.89,0,0,0,.43,0,1.72,1.72,0,0,0,1.86-2A1.59,1.59,0,0,0,10.66,17.77Z"/><path d="M13.75,0h-11A2.68,2.68,0,0,0,.81.82,2.83,2.83,0,0,0,0,2.8V25.2a2.83,2.83,0,0,0,.81,2A2.68,2.68,0,0,0,2.75,28h16.5a2.68,2.68,0,0,0,1.94-.82,2.83,2.83,0,0,0,.81-2V8.4ZM7.56,19.87a2.55,2.55,0,0,1-1.78.58,2.07,2.07,0,0,1-.43,0v2H4.13V16.91A10.34,10.34,0,0,1,5.8,16.8a2.59,2.59,0,0,1,1.68.45,1.63,1.63,0,0,1,.58,1.29A1.84,1.84,0,0,1,7.56,19.87Zm5.23,1.89a3.85,3.85,0,0,1-2.53.72,10.82,10.82,0,0,1-1.4-.08V16.92a9.32,9.32,0,0,1,1.67-.12,3.47,3.47,0,0,1,2.25.6,2.47,2.47,0,0,1,.93,2.1A2.84,2.84,0,0,1,12.79,21.76Zm5.08-3.88h-2.1v1.27h2v1h-2v2.25H14.52V16.84h3.35ZM12.38,9.8v-7l6.87,7Z"/></svg>