<svg xmlns="http://www.w3.org/2000/svg" viewBox="0 0 32 32"><path fill-rule="evenodd" d="M15.44 5.7c.58 0 .93.02.93.02 4.79.01 7.07 1.38 7.61 1.84 1.76 1.43 2.66 4.86 2 9.89-.57 4.4-3.68 5.09-4.8 5.33l-.29.07c-.3.09-3.03.73-6.48.52 0 0-2.57 2.94-3.37 3.7-.13.13-.28.17-.37.15-.14-.03-.18-.19-.17-.41l.02-4.02c-4.86-1.27-4.75-5.96-4.69-8.63v-.28c.06-2.6.58-4.73 2.11-6.17C10 5.94 13.71 5.7 15.43 5.69Zm.26 2.62.12-.02c1.86 0 3.45.6 4.7 1.76a6.55 6.55 0 0 1 1.47 2.19c.33.82.48 1.69.44 2.57 0 .08-.03.15-.09.21a.31.31 0 0 1-.22.09c-.18.01-.32-.12-.32-.29-.02-1.86-.58-3.28-1.73-4.34a6.17 6.17 0 0 0-4.25-1.59c-.17 0-.32-.13-.32-.3 0-.04 0-.08.02-.11a.36.36 0 0 1 .07-.1.2.2 0 0 1 .1-.06Zm-4.69.79c.19-.11.42-.15.65-.12.21.04.4.14.53.3.61.66 1.16 1.38 1.62 2.15.3.51.11 1.03-.18 1.25l-.59.45c-.3.22-.26.65-.26.65a6 6 0 0 0 4.17 3.96h.01s.44.03.68-.25l.47-.57c.22-.28.77-.45 1.31-.17.8.44 1.56.96 2.26 1.54.35.28.43.69.19 1.12-.26.44-.59.83-.98 1.16-.32.28-.73.44-1.16.47-.14 0-.27-.02-.42-.06-.51-.15-1.35-.49-2.74-1.21a16.31 16.31 0 0 1-3.35-2.33l-.03-.03-.03-.03-.05-.03-.03-.04a14.9 14.9 0 0 1-2.44-3.17c-.52-.82-.94-1.69-1.27-2.6h-.02a1.34 1.34 0 0 1-.05-.56c.04-.31.2-.63.49-.95.35-.37.75-.69 1.21-.94h.02Zm5.36 1.37c-.42 0-.42-.6 0-.6h.05a4.7 4.7 0 0 1 3.21 1.34 4 4 0 0 1 1.13 2.99c0 .08-.03.16-.09.21a.31.31 0 0 1-.22.09v-.02c-.1 0-.18-.03-.23-.09a.29.29 0 0 1-.09-.21 3.43 3.43 0 0 0-.95-2.57 4.02 4.02 0 0 0-2.79-1.15Zm.49 1.63c-.43-.01-.41-.63.02-.61h.01c1.37.07 2.14.83 2.21 2.16 0 .04 0 .08-.02.12l-.06.1c-.02.03-.06.05-.1.07a.27.27 0 0 1-.12.03h-.01a.31.31 0 0 1-.22-.09.27.27 0 0 1-.09-.21c-.07-1.03-.57-1.53-1.61-1.58Z"/><path fill-rule="evenodd" d="M15.37 4c-2.03.02-6.39.34-8.83 2.46-1.82 1.71-2.45 4.23-2.52 7.35-.06 3.11-.14 8.95 5.79 10.54v2.42s-.04.97.64 1.17c.69.21 1.13-.27 1.71-.89l.38-.4 1.47-1.58c4.06.32 7.17-.42 7.52-.53l.3-.08c1.31-.31 5.23-1.25 5.92-6.58.78-6.03-.38-9.83-2.47-11.55h-.01c-.63-.55-3.16-2.3-8.82-2.32 0 0-.42-.03-1.09-.02Zm.07 1.7c.58 0 .93.02.93.02 4.79.01 7.07 1.38 7.61 1.84 1.76 1.43 2.66 4.86 2 9.89-.57 4.4-3.68 5.09-4.8 5.33l-.29.07c-.3.09-3.03.73-6.48.52 0 0-2.57 2.94-3.37 3.7-.13.13-.28.17-.37.15-.14-.03-.18-.19-.17-.41l.02-4.02c-4.86-1.27-4.75-5.96-4.69-8.63v-.28c.06-2.6.58-4.73 2.11-6.17C10 5.94 13.71 5.7 15.43 5.69Z"/></svg>