<svg xmlns="http://www.w3.org/2000/svg" viewBox="0 0 32 32"><path d="M16.75 26.5a11.1 11.1 0 0 1-5.46-1.41L4 28l2.91-7.29a11.1 11.1 0 0 1-.52-9.83 11.2 11.2 0 0 1 5.99-5.99C13.76 4.3 15.22 4 16.75 4s2.99.3 4.37.89a11.2 11.2 0 0 1 5.99 5.99c.59 1.38.89 2.84.89 4.37s-.3 2.99-.89 4.37a11.2 11.2 0 0 1-5.99 5.99c-1.38.59-2.84.89-4.37.89Zm3.75-9H19l-.84.75c-.7-.19-1.57-.79-2.59-1.82-1.02-1.02-1.63-1.89-1.82-2.59l.75-.84v-1.5c0-.27-.09-.53-.28-.8a1.65 1.65 0 0 0-.62-.57c-.23-.12-.39-.13-.48-.04l-1.1 1.1c-.61.61-.7 1.56-.27 2.85a9.73 9.73 0 0 0 2.46 3.75 9.73 9.73 0 0 0 3.75 2.46c1.29.43 2.24.34 2.85-.27l1.1-1.1c.09-.09.08-.25-.04-.48a1.84 1.84 0 0 0-.57-.62 1.37 1.37 0 0 0-.8-.28Z"/></svg>